#!OML:ASF I:\golf\golf\golf 2\Subject 1\2002-09-07\Subject1.ASF
:FULLY-SPECIFIED
:DEGREES
184
root 1.33513 16.4169 -3.4886 23.0894 -0.685826 -1.99828
lowerback 22.9911 5.69381 -4.46214
upperback 13.8263 6.47741 4.87903
thorax 1.43416 2.74768 6.38675
lowerneck -15.0252 -1.57444 -2.86078
upperneck 27.8898 1.89936 -10.8638
head 11.7773 -0.716086 -3.2746
rclavicle -1.90833e-014 6.36111e-015
rhumerus 18.7863 13.7789 -71.1781
rradius 31.0234
rwrist -16.1595
rhand -33.2447 18.8672
rfingers 7.12502
rthumb -6.45048 -11.0146
lclavicle -1.90833e-014 6.36111e-015
lhumerus -24.5786 -39.9632 95.862
lradius 74.5448
lwrist -2.87683
lhand -35.7806 27.2354
lfingers 7.12502
lthumb -8.89811 57.0277
rfemur -67.0111 -25.4669 35.3129
rtibia 77.8549
rfoot -15.6453 -6.08583
rtoes -3.33015
lfemur -64.7567 8.05592 -18.3736
ltibia 52.2703
lfoot -13.331 -13.4224
ltoes -9.62781
185
root 1.35956 16.337 -3.47308 22.9241 -0.542477 -2.20689
lowerback 23.5178 5.77221 -4.09543
upperback 13.9988 6.62033 5.0648
thorax 1.36785 2.8267 6.32106
lowerneck -14.9552 -1.75213 -2.97179
upperneck 27.7472 1.69373 -10.9736
head 11.699 -0.822484 -3.3176
rclavicle 1.59028e-015 2.8625e-014
rhumerus 19.387 13.3205 -70.9108
rradius 31.035
rwrist -15.8346
rhand -33.6133 18.7912
rfingers 7.12502
rthumb -6.8063 -11.0794
lclavicle 1.59028e-015 2.8625e-014
lhumerus -24.7355 -40.071 95.9312
lradius 75.1981
lwrist -3.42485
lhand -36.1581 27.4003
lfingers 7.12502
lthumb -9.26236 57.1768
rfemur -67.7298 -26.1495 36.1795
rtibia 78.6227
rfoot -15.6783 -5.87068
rtoes -4.43238
lfemur -65.3579 8.17534 -18.29
ltibia 53.5678
lfoot -13.5892 -13.6652
ltoes -8.32423
186
root 1.37693 16.2517 -3.45722 22.8633 -0.463299 -2.29365
lowerback 23.8904 5.8933 -4.03002
upperback 14.1584 6.7719 5.2693
thorax 1.33281 2.89242 6.45391
lowerneck -14.8519 -1.94673 -3.16305
upperneck 27.6317 1.47077 -11.03
head 11.6238 -0.938485 -3.32913
rclavicle 0 6.36111e-015
rhumerus 19.9799 12.9907 -70.6439
rradius 30.9745
rwrist -15.6135
rhand -33.9727 18.8991
rfingers 7.12502
rthumb -7.15322 -10.96
lclavicle 0 6.36111e-015
lhumerus -24.7937 -40.0963 96.0254
lradius 75.8474
lwrist -3.7981
lhand -36.6198 27.6192
lfingers 7.12502
lthumb -9.70783 57.3755
rfemur -68.5021 -26.6782 36.9029
rtibia 79.2881
rfoot -15.5584 -5.68702
rtoes -5.65471
lfemur -66.0819 8.38309 -18.4126
ltibia 54.8508
lfoot -13.9229 -13.9814
ltoes -7.28761
187
root 1.39649 16.169 -3.43662 22.7108 -0.588166 -2.10433
lowerback 24.2469 6.05135 -4.3067
upperback 14.3602 6.90338 5.38685
thorax 1.33628 2.92983 6.69439
lowerneck -14.8437 -2.09125 -3.3748
upperneck 27.5717 1.33921 -11.0952
head 11.5962 -1.02199 -3.33246
rclavicle -6.36111e-015 8.74653e-015
rhumerus 20.5999 12.8162 -70.4117
rradius 30.7376
rwrist -15.3378
rhand -34.227 19.2494
rfingers 7.12502
rthumb -7.39868 -10.6012
lclavicle -6.36111e-015 8.74653e-015
lhumerus -24.7162 -39.9203 96.1133
lradius 76.2805
lwrist -4.20423
lhand -36.9666 27.8906
lfingers 7.12502
lthumb -10.0424 57.631
rfemur -69.0398 -27.2329 37.1282
rtibia 79.8142
rfoot -15.3376 -5.17332
rtoes -6.30991
lfemur -66.6263 8.60367 -18.8851
ltibia 56.1414
lfoot -14.4183 -14.1552
ltoes -6.85284
188
root 1.41983 16.0876 -3.41386 22.5142 -0.692937 -1.84863
lowerback 24.6579 6.15257 -4.50665
upperback 14.5261 6.97287 5.43817
thorax 1.29799 2.94532 6.82832
lowerneck -14.8028 -2.18412 -3.56435
upperneck 27.5117 1.27809 -11.1824
head 11.566 -1.07358 -3.33743
rclavicle 4.6118e-014 -9.54166e-015
rhumerus 21.1733 12.6526 -70.2437
rradius 30.5209
rwrist -15.1577
rhand -34.4607 19.4466
rfingers 7.12502
rthumb -7.6243 -10.3959
lclavicle 4.6118e-014 -9.54166e-015
lhumerus -24.7615 -39.6897 96.1793
lradius 76.6772
lwrist -4.66464
lhand -37.2037 27.9863
lfingers 7.12502
lthumb -10.2711 57.7155
rfemur -69.4211 -27.8954 37.2278
rtibia 80.1796
rfoot -15.1035 -4.43487
rtoes -5.57554
lfemur -67.0906 8.69913 -19.3636
ltibia 57.4694
lfoot -15.0107 -14.1809
ltoes -6.67127
189
root 1.44291 16.0046 -3.38847 22.4235 -0.684511 -1.78823
lowerback 24.9108 6.24769 -4.32381
upperback 14.6893 7.11208 5.45127
thorax 1.3598 3.01714 6.69463
lowerneck -14.7591 -2.36854 -3.60799
upperneck 27.4165 0.995911 -11.1032
head 11.5039 -1.18777 -3.33289
rclavicle -2.38542e-014 8.74653e-015
rhumerus 21.6661 12.1112 -70.2154
rradius 30.3111
rwrist -14.9048
rhand -34.9576 19.7242
rfingers 7.12502
rthumb -8.10387 -10.1004
lclavicle -2.38542e-014 8.74653e-015
lhumerus -24.8027 -39.8371 96.0845
lradius 77.2362
lwrist -5.00186
lhand -37.2857 27.848
lfingers 7.12502
lthumb -10.3503 57.5732
rfemur -69.8517 -28.5594 37.6827
rtibia 80.4776
rfoot -15.3106 -4.11495
rtoes -3.4538
lfemur -67.7012 8.80152 -19.6181
ltibia 58.8399
lfoot -15.5725 -14.2631
ltoes -6.25657
190
root 1.46242 15.9221 -3.36476 22.3507 -0.709017 -1.95359
lowerback 25.1905 6.43466 -3.88905
upperback 14.821 7.41249 5.44046
thorax 1.37875 3.18651 6.34376
lowerneck -14.6731 -2.63227 -3.43583
upperneck 27.3086 0.507275 -10.9133
head 11.4116 -1.35771 -3.34937
rclavicle -3.18055e-014 -5.56597e-015
rhumerus 21.9789 11.1524 -70.4137
rradius 30.0588
rwrist -14.5261
rhand -35.5617 20.3479
rfingers 7.12502
rthumb -8.68683 -9.45337
lclavicle -3.18055e-014 -5.56597e-015
lhumerus -24.8649 -40.3298 95.9247
lradius 77.9253
lwrist -5.29961
lhand -37.2189 27.912
lfingers 7.12502
lthumb -10.2858 57.6405
rfemur -70.2296 -29.0764 38.4463
rtibia 80.8568
rfoot -16.0567 -4.79288
rtoes -3.21204
lfemur -68.378 9.05019 -19.651
ltibia 60.2493
lfoot -16.1591 -14.3298
ltoes -6.31228
191
root 1.4776 15.8349 -3.34555 22.2662 -0.604899 -2.14874
lowerback 25.6296 6.53417 -3.48067
upperback 14.8765 7.59965 5.50022
thorax 1.24659 3.30013 6.098
lowerneck -14.6263 -2.825 -3.34956
upperneck 27.273 0.180699 -10.8193
head 11.3677 -1.4795 -3.36948
rclavicle -1.27222e-014 -3.57812e-014
rhumerus 22.2861 10.5673 -70.5504
rradius 29.8176
rwrist -14.3464
rhand -36.2434 20.9326
rfingers 7.12502
rthumb -9.34471 -8.84025
lclavicle -1.27222e-014 -3.57812e-014
lhumerus -24.9712 -40.5053 95.8727
lradius 78.4967
lwrist -5.85995
lhand -37.3022 28.097
lfingers 7.12502
lthumb -10.3662 57.8215
rfemur -70.6083 -29.6224 39.2862
rtibia 81.4343
rfoot -16.8213 -5.83107
rtoes -5.62817
lfemur -69.1115 9.19852 -19.5795
ltibia 61.6732
lfoot -16.5888 -14.4352
ltoes -6.47184
192
root 1.49461 15.7397 -3.32575 22.2175 -0.455085 -2.11104
lowerback 26.0249 6.55239 -3.2289
upperback 14.9144 7.65955 5.5243
thorax 1.12331 3.34375 5.93813
lowerneck -14.6629 -2.98099 -3.34646
upperneck 27.3502 -0.0370367 -10.7816
head 11.3928 -1.57335 -3.38941
rclavicle 2.22639e-014 5.56597e-015
rhumerus 22.6591 10.1464 -70.6238
rradius 29.5049
rwrist -14.118
rhand -36.7513 21.2539
rfingers 7.12502
rthumb -9.8347 -8.49647
lclavicle 2.22639e-014 5.56597e-015
lhumerus -24.8913 -40.5386 95.7972
lradius 78.7656
lwrist -6.57798
lhand -37.6143 27.9444
lfingers 7.12502
lthumb -10.6672 57.6536
rfemur -71.1158 -30.2765 39.8074
rtibia 82.2282
rfoot -17.5163 -6.35848
rtoes -7.33897
lfemur -69.8801 9.18958 -19.7321
ltibia 63.1045
lfoot -16.8587 -14.6426
ltoes -6.03672
193
root 1.51529 15.6438 -3.30543 22.1593 -0.421456 -1.98005
lowerback 26.2926 6.59826 -3.07383
upperback 15.001 7.73727 5.53465
thorax 1.105 3.38822 5.82625
lowerneck -14.5352 -3.15402 -3.35155
upperneck 27.2718 -0.278341 -10.8364
head 11.3242 -1.67994 -3.43352
rclavicle 6.20208e-014 1.90833e-014
rhumerus 23.065 9.68969 -70.608
rradius 29.1651
rwrist -13.8293
rhand -37.1604 21.5428
rfingers 7.12502
rthumb -10.2294 -8.18852
lclavicle 6.20208e-014 1.90833e-014
lhumerus -24.7814 -40.543 95.7445
lradius 79.1232
lwrist -7.20026
lhand -37.786 27.7713
lfingers 7.12502
lthumb -10.8329 57.4719
rfemur -71.6299 -30.8607 40.0323
rtibia 83.1436
rfoot -18.2967 -6.57745
rtoes -7.70689
lfemur -70.5928 9.19449 -20.0101
ltibia 64.5213
lfoot -17.2532 -14.8052
ltoes -5.46511
